SplineFontDB: 3.2
FontName: hiContr_Lite_Medium_Italic
FullName: hiContr Lite Medium Italic
FamilyName: hiContr Lite
Weight: Medium
Copyright: Copyright (c) 2022, RandomMaerks (aka Bao Nguyen) (rmforbusiness@gmail.com)
UComments: "2022-1-20: Created with FontForge (http://fontforge.org)"
Version: 1.0
ItalicAngle: 0
UnderlinePosition: -100
UnderlineWidth: 50
Ascent: 800
Descent: 200
InvalidEm: 0
LayerCount: 2
Layer: 0 0 "Back" 1
Layer: 1 0 "Fore" 0
XUID: [1021 301 932173752 10983]
OS2Version: 0
OS2_WeightWidthSlopeOnly: 0
OS2_UseTypoMetrics: 1
CreationTime: 1642688027
ModificationTime: 1642689114
OS2TypoAscent: 0
OS2TypoAOffset: 1
OS2TypoDescent: 0
OS2TypoDOffset: 1
OS2TypoLinegap: 0
OS2WinAscent: 0
OS2WinAOffset: 1
OS2WinDescent: 0
OS2WinDOffset: 1
HheadAscent: 0
HheadAOffset: 1
HheadDescent: 0
HheadDOffset: 1
OS2Vendor: 'PfEd'
MarkAttachClasses: 1
DEI: 91125
Encoding: ISO8859-1
UnicodeInterp: none
NameList: AGL For New Fonts
DisplaySize: -48
AntiAlias: 1
FitToEm: 0
WinInfo: 0 38 14
BeginPrivate: 0
EndPrivate
BeginChars: 256 58

StartChar: n
Encoding: 110 110 0
Width: 419
Flags: HW
LayerCount: 2
Fore
SplineSet
188.974609375 500 m 1
 221.974609375 500 l 1
 240.086914062 400.278320312 l 1
 273.837890625 463.639648438 320.59375 523 387.137695312 523 c 0
 466.900390625 523 489.858398438 452.915039062 459.602539062 340 c 2
 368.5 0 l 1
 275.5 0 l 1
 371.961914062 360 l 2
 392.115234375 435.213867188 386.16796875 477 343.811523438 477 c 0
 300.189453125 477 261.146484375 422.268554688 240.442382812 345 c 2
 148 0 l 1
 55 0 l 1
 188.974609375 500 l 1
EndSplineSet
EndChar

StartChar: t
Encoding: 116 116 1
Width: 362
Flags: HW
LayerCount: 2
Fore
SplineSet
371.166992188 650 m 1
 404.166992188 650 l 1
 363.974609375 500 l 1
 460.974609375 500 l 1
 450.79296875 462 l 1
 353.79296875 462 l 1
 230 0 l 1
 137 0 l 1
 260.79296875 462 l 1
 158.79296875 462 l 1
 163.615234375 480 l 1
 371.166992188 650 l 1
EndSplineSet
EndChar

StartChar: h
Encoding: 104 104 2
Width: 428
Flags: HW
LayerCount: 2
Fore
SplineSet
242.564453125 700 m 1
 320.564453125 700 l 1
 239.358398438 396.935546875 l 1
 276.532226562 470.463867188 329.1796875 523 387.137695312 523 c 0
 469.85546875 523 494.358398438 452.915039062 464.102539062 340 c 2
 373 0 l 1
 280 0 l 1
 377.801757812 365 l 2
 397.955078125 440.213867188 390.7109375 482 345.151367188 482 c 0
 301.529296875 482 261.930664062 425.1953125 240.442382812 345 c 2
 148 0 l 1
 55 0 l 1
 242.564453125 700 l 1
EndSplineSet
EndChar

StartChar: u
Encoding: 117 117 3
Width: 428
Flags: HW
LayerCount: 2
Fore
SplineSet
373 0 m 1
 340 0 l 1
 323.657226562 108.029296875 l 1
 289.205078125 43.083984375 242.125976562 -18 176.176757812 -18 c 0
 93.458984375 -18 68.9560546875 52.0849609375 99.2119140625 165 c 2
 188.974609375 500 l 1
 281.974609375 500 l 1
 186.852539062 145 l 2
 166.69921875 69.7861328125 173.943359375 28 219.502929688 28 c 0
 263.125 28 302.723632812 84.8046875 324.211914062 165 c 2
 413.974609375 500 l 1
 506.974609375 500 l 1
 373 0 l 1
EndSplineSet
EndChar

StartChar: m
Encoding: 109 109 4
Width: 658
Flags: HW
LayerCount: 2
Fore
SplineSet
188.974609375 500 m 1
 221.974609375 500 l 1
 240.086914062 400.278320312 l 1
 273.837890625 463.639648438 320.59375 523 387.137695312 523 c 0
 451.599609375 523 477.29296875 472.553710938 483.02734375 419.360351562 c 1
 511.797851562 480.237304688 559.708984375 523 617.137695312 523 c 0
 699.85546875 523 724.358398438 452.915039062 694.102539062 340 c 2
 603 0 l 1
 515 0 l 1
 612.801757812 365 l 2
 632.09375 437 622.930664062 477 573.811523438 477 c 0
 530.189453125 477 492.245117188 426.369140625 469.102539062 340 c 2
 378 0 l 1
 285 0 l 1
 382.801757812 365 l 2
 402.09375 437 392.930664062 477 343.811523438 477 c 0
 300.189453125 477 261.146484375 422.268554688 240.442382812 345 c 2
 148 0 l 1
 55 0 l 1
 188.974609375 500 l 1
EndSplineSet
EndChar

StartChar: r
Encoding: 114 114 5
Width: 408
Flags: HW
LayerCount: 2
Fore
SplineSet
188.974609375 500 m 1
 216.974609375 500 l 1
 241.426757812 405.278320312 l 1
 275.913085938 468.639648438 324.018554688 528 393.477539062 528 c 0
 472.912109375 528 495.184570312 456 464.102539062 340 c 1
 365.744140625 320 l 1
 393.6484375 424.142578125 389.270507812 482 340.151367188 482 c 0
 299.736328125 482 262.486328125 427.268554688 241.782226562 350 c 2
 148 0 l 1
 55 0 l 1
 188.974609375 500 l 1
EndSplineSet
EndChar

StartChar: o
Encoding: 111 111 6
Width: 414
Flags: HW
LayerCount: 2
Fore
SplineSet
347.637695312 523 m 0
 423.676757812 523 487.524414062 461 453.762695312 335 c 2
 410.890625 175 l 2
 377.129882812 49 280.056640625 -13 204.016601562 -13 c 0
 127.491210938 -13 63.1298828125 49 96.890625 175 c 2
 139.762695312 335 l 2
 173.524414062 461 271.112304688 523 347.637695312 523 c 0
337.991210938 487 m 0
 292.076171875 487 262.7734375 447 243.48046875 375 c 2
 179.172851562 135 l 2
 159.880859375 63 167.748046875 23 213.663085938 23 c 0
 258.866210938 23 287.880859375 63 307.172851562 135 c 2
 371.48046875 375 l 2
 390.7734375 447 383.194335938 487 337.991210938 487 c 0
EndSplineSet
EndChar

StartChar: e
Encoding: 101 101 7
Width: 414
Flags: HW
LayerCount: 2
Fore
SplineSet
214.165039062 265.590820312 m 1
 346.708007812 282.545898438 l 1
 373.892578125 384 l 2
 390.548828125 446.161132812 383.576171875 487 337.491210938 487 c 0
 291.931640625 487 262.7734375 447 243.48046875 375 c 2
 214.165039062 265.590820312 l 1
207.133789062 239.350585938 m 1
 179.172851562 135 l 2
 159.880859375 63 167.603515625 23 213.163085938 23 c 0
 258.721679688 23 293.623046875 84.4287109375 323.25 195 c 1
 410.890625 175 l 1
 377.129882812 49 279.798828125 -13 203.516601562 -13 c 0
 127.234375 -13 63.1298828125 49 96.890625 175 c 2
 139.762695312 335 l 2
 173.524414062 461 270.854492188 523 347.137695312 523 c 0
 423.419921875 523 487.524414062 461 453.762695312 335 c 2
 436.346679688 270 l 1
 207.133789062 239.350585938 l 1
EndSplineSet
EndChar

StartChar: c
Encoding: 99 99 8
Width: 414
Flags: HW
LayerCount: 2
Fore
SplineSet
453.762695312 335 m 1
 355.404296875 315 l 1
 385.03125 425.571289062 383.05078125 487 337.491210938 487 c 0
 295.491210938 487 267.7734375 447 248.48046875 375 c 2
 184.172851562 135 l 2
 164.880859375 63 171.163085938 23 213.163085938 23 c 0
 258.721679688 23 293.623046875 84.4287109375 323.25 195 c 1
 410.890625 175 l 1
 377.129882812 49 279.798828125 -13 203.516601562 -13 c 0
 127.234375 -13 63.1298828125 49 96.890625 175 c 2
 139.762695312 335 l 2
 173.524414062 461 270.854492188 523 347.137695312 523 c 0
 423.419921875 523 487.524414062 461 453.762695312 335 c 1
EndSplineSet
EndChar

StartChar: l
Encoding: 108 108 9
Width: 229
Flags: HW
LayerCount: 2
Fore
SplineSet
153 0 m 2
 89.8818359375 0 68.1298828125 49 80.72265625 96 c 2
 229.166992188 650 l 1
 335.564453125 700 l 1
 169.704101562 81 l 2
 163.16796875 56.6083984375 171.75 48 188.861328125 48 c 2
 196.861328125 48 l 1
 184 0 l 1
 153 0 l 2
EndSplineSet
EndChar

StartChar: b
Encoding: 98 98 10
Width: 424
Flags: HW
LayerCount: 2
Fore
SplineSet
378.477539062 528 m 0
 451.892578125 528 501.184570312 456 470.102539062 340 c 2
 427.23046875 180 l 2
 396.1484375 64 308.271484375 -8 234.856445312 -8 c 0
 182.9609375 -8 154.547851562 49.2958984375 164.744140625 123.447265625 c 1
 83 0 l 1
 55 0 l 1
 242.564453125 700 l 1
 315.564453125 700 l 1
 239.127929688 414.734375 l 1
 275.798828125 479.25390625 330.140625 528 378.477539062 528 c 0
233.744140625 320 m 2
 201.58984375 200 l 2
 173.684570312 95.857421875 178.063476562 38 227.181640625 38 c 0
 279.860351562 38 312.857421875 81.5712890625 333.872070312 160 c 2
 387.461914062 360 l 2
 408.4765625 438.428710938 398.829101562 482 346.151367188 482 c 0
 297.033203125 482 261.6484375 424.142578125 233.744140625 320 c 2
EndSplineSet
EndChar

StartChar: d
Encoding: 100 100 11
Width: 424
Flags: HW
LayerCount: 2
Fore
SplineSet
323.477539062 528 m 0
 252.647460938 528 167.184570312 456 136.102539062 340 c 2
 93.23046875 180 l 2
 62.1484375 64 109.026367188 -8 179.856445312 -8 c 0
 234.21484375 -8 295.411132812 49.2958984375 325.41015625 123.447265625 c 1
 341 0 l 1
 369 0 l 1
 556.564453125 700 l 1
 483.564453125 700 l 1
 407.127929688 414.734375 l 1
 404.143554688 479.25390625 374.03125 528 323.477539062 528 c 0
361.744140625 320 m 2
 329.58984375 200 l 2
 301.684570312 95.857421875 266.30078125 38 217.181640625 38 c 0
 168.063476562 38 159.857421875 81.5712890625 180.872070312 160 c 2
 234.461914062 360 l 2
 255.4765625 438.428710938 287.033203125 482 336.151367188 482 c 0
 385.270507812 482 389.6484375 424.142578125 361.744140625 320 c 2
EndSplineSet
EndChar

StartChar: p
Encoding: 112 112 12
Width: 424
Flags: HW
LayerCount: 2
Fore
SplineSet
234.497070312 -28 m 0
 305.327148438 -28 390.790039062 44 421.872070312 160 c 2
 464.744140625 320 l 2
 495.826171875 436 448.948242188 508 378.118164062 508 c 0
 323.759765625 508 262.563476562 450.704101562 232.564453125 376.552734375 c 1
 216.974609375 500 l 1
 188.974609375 500 l 1
 14.8076171875 -150 l 1
 87.8076171875 -150 l 1
 150.846679688 85.265625 l 1
 153.831054688 20.74609375 183.943359375 -28 234.497070312 -28 c 0
196.23046875 180 m 2
 228.384765625 300 l 2
 256.290039062 404.142578125 291.673828125 462 340.79296875 462 c 0
 389.911132812 462 398.1171875 418.428710938 377.102539062 340 c 2
 323.512695312 140 l 2
 302.498046875 61.5712890625 270.94140625 18 221.823242188 18 c 0
 172.704101562 18 168.326171875 75.857421875 196.23046875 180 c 2
EndSplineSet
EndChar

StartChar: q
Encoding: 113 113 13
Width: 424
Flags: HW
LayerCount: 2
Fore
SplineSet
174.497070312 -28 m 0
 103.66796875 -28 57.302734375 45.9150390625 89.2119140625 165 c 2
 132.083007812 325 l 2
 162.338867188 437.915039062 247.288085938 508 318.118164062 508 c 0
 372.477539062 508 402.967773438 450.704101562 393.23046875 376.552734375 c 1
 474.974609375 500 l 1
 502.974609375 500 l 1
 328.807617188 -150 l 1
 255.807617188 -150 l 1
 318.846679688 85.265625 l 1
 281.287109375 20.74609375 225.051757812 -28 174.497070312 -28 c 0
324.23046875 180 m 2
 356.384765625 300 l 2
 384.290039062 404.142578125 379.911132812 462 330.79296875 462 c 0
 281.673828125 462 250.1171875 418.428710938 229.102539062 340 c 2
 175.512695312 140 l 2
 154.498046875 61.5712890625 162.704101562 18 211.823242188 18 c 0
 260.94140625 18 296.326171875 75.857421875 324.23046875 180 c 2
EndSplineSet
EndChar

StartChar: i
Encoding: 105 105 14
Width: 198
Flags: HW
LayerCount: 2
Fore
SplineSet
295.865234375 570.5 m 1
 207.865234375 570.5 l 1
 231.846679688 660 l 1
 319.846679688 660 l 1
 295.865234375 570.5 l 1
143 0 m 1
 55 0 l 1
 188.974609375 500 l 1
 276.974609375 500 l 1
 143 0 l 1
EndSplineSet
EndChar

StartChar: a
Encoding: 97 97 15
Width: 434
Flags: HW
LayerCount: 2
Fore
SplineSet
327.98828125 111.01171875 m 1
 302.981445312 52.677734375 247.93359375 -7.8203125 178.138671875 -7.8203125 c 0
 107.659179688 -7.8203125 67.322265625 45.98828125 91.708984375 137 c 0
 121.775390625 249.208984375 245.415039062 292.649414062 369.415039062 292.649414062 c 1
 375.939453125 317 l 2
 404.706054688 424.357421875 399.365234375 484 346.6875 484 c 0
 294.009765625 484 256.706054688 424.357421875 227.939453125 317 c 1
 145.298828125 337 l 1
 180.249023438 467.436523438 277.622070312 520 356.333984375 520 c 0
 435.045898438 520 503.206054688 463.54296875 469.298828125 337 c 2
 379 0 l 1
 345 0 l 1
 327.98828125 111.01171875 l 1
361.982421875 264.909179688 m 1
 254.118164062 264.909179688 195.571289062 196.200195312 182.778320312 148.454101562 c 0
 172.973632812 111.861328125 175.661132812 45 229.057617188 45 c 0
 281.735351562 45 317.603515625 99.2861328125 343.786132812 197 c 2
 361.982421875 264.909179688 l 1
EndSplineSet
EndChar

StartChar: f
Encoding: 102 102 17
Width: 362
Flags: HW
LayerCount: 2
Fore
SplineSet
451.013671875 673.400390625 m 0
 398.111328125 673.400390625 362.701171875 588.546875 338.974609375 500 c 1
 460.974609375 500 l 1
 450.79296875 462 l 1
 328.79296875 462 l 1
 205 0 l 1
 112 0 l 1
 235.79296875 462 l 1
 158.79296875 462 l 1
 168.974609375 500 l 1
 245.974609375 500 l 1
 288.657226562 659.291992188 373.309570312 720 446.923828125 720 c 0
 474.923828125 720 487.659179688 713.916992188 499.708007812 708 c 1
 488.721679688 667 l 1
 488.721679688 667 472.517578125 673.400390625 451.013671875 673.400390625 c 0
EndSplineSet
EndChar

StartChar: g
Encoding: 103 103 18
Width: 424
Flags: HW
LayerCount: 2
Fore
SplineSet
337.092773438 228 m 2
 356.384765625 300 l 2
 385.151367188 407.357421875 381.250976562 467 332.131835938 467 c 0
 283.013671875 467 251.935546875 425.213867188 231.782226562 350 c 2
 185.6953125 178 l 2
 165.541015625 102.786132812 174.2265625 61 223.344726562 61 c 0
 272.463867188 61 308.326171875 120.642578125 337.092773438 228 c 2
187.359375 20 m 0
 116.529296875 20 69.6513671875 92 100.733398438 208 c 2
 130.744140625 320 l 2
 161.826171875 436 247.288085938 508 318.118164062 508 c 0
 382.952148438 508 405.647460938 460.704101562 393.23046875 376.552734375 c 1
 484.974609375 500 l 1
 502.974609375 500 l 1
 363.10546875 -22 l 2
 327.735351562 -154 232.122070312 -200 153.41015625 -200 c 0
 77.1279296875 -200 8.7353515625 -154 44.10546875 -22 c 1
 142.463867188 -2 l 1
 111.823242188 -116.352539062 117.497070312 -164 163.056640625 -164 c 0
 212.174804688 -164 240.094726562 -134 259.38671875 -62 c 2
 303.669921875 103.265625 l 1
 274.86328125 47 238.411132812 20 187.359375 20 c 0
EndSplineSet
EndChar

StartChar: j
Encoding: 106 106 19
Width: 198
Flags: HW
LayerCount: 2
Fore
SplineSet
295.865234375 570.5 m 1
 207.865234375 570.5 l 1
 231.846679688 660 l 1
 319.846679688 660 l 1
 295.865234375 570.5 l 1
44.2822265625 -40 m 2
 188.974609375 500 l 1
 276.974609375 500 l 1
 148.359375 20 l 2
 105.676757812 -139.291992188 18.6162109375 -200 -57.58984375 -200 c 0
 -85.58984375 -200 -98.3251953125 -193.916992188 -110.374023438 -188 c 1
 -102.068359375 -157 l 1
 -102.068359375 -157 -85.86328125 -163.400390625 -64.359375 -163.400390625 c 0
 -3.390625 -163.400390625 27.3974609375 -103.014648438 44.2822265625 -40 c 2
EndSplineSet
EndChar

StartChar: k
Encoding: 107 107 20
Width: 412
Flags: HW
LayerCount: 2
Fore
SplineSet
148 0 m 1
 55 0 l 1
 242.564453125 700 l 1
 325.564453125 700 l 1
 197.188476562 220.895507812 l 1
 470.474609375 500 l 1
 510.974609375 500 l 1
 312.3984375 286.509765625 l 1
 377 0 l 1
 284 0 l 1
 233.696289062 228.387695312 l 1
 199.549804688 192.387695312 l 1
 148 0 l 1
EndSplineSet
EndChar

StartChar: v
Encoding: 118 118 21
Width: 388
Flags: HW
LayerCount: 2
Fore
SplineSet
242.038085938 30 m 1
 456.974609375 500 l 1
 486.974609375 500 l 1
 258 0 l 1
 155 0 l 1
 168.974609375 500 l 1
 261.974609375 500 l 1
 242.038085938 30 l 1
EndSplineSet
EndChar

StartChar: w
Encoding: 119 119 22
Width: 648
Flags: HW
LayerCount: 2
Fore
SplineSet
227.038085938 30 m 1
 423.974609375 500 l 1
 521.974609375 500 l 1
 497.038085938 30 l 1
 718.974609375 500 l 1
 746.974609375 500 l 1
 513 0 l 1
 420 0 l 1
 436.541992188 457.333007812 l 1
 243 0 l 1
 150 0 l 1
 168.974609375 500 l 1
 266.974609375 500 l 1
 227.038085938 30 l 1
EndSplineSet
EndChar

StartChar: y
Encoding: 121 121 23
Width: 388
Flags: HW
LayerCount: 2
Fore
SplineSet
267.115234375 90 m 1
 455.974609375 500 l 1
 486.974609375 500 l 1
 177.627929688 -160 l 1
 87.6279296875 -160 l 1
 196.077148438 60 l 1
 176.077148438 60 l 1
 168.974609375 500 l 1
 261.974609375 500 l 1
 267.115234375 90 l 1
EndSplineSet
EndChar

StartChar: x
Encoding: 120 120 24
Width: 406
Flags: HW
LayerCount: 2
Fore
SplineSet
371 0 m 1
 278 0 l 1
 240.662109375 204 l 1
 80 0 l 1
 35 0 l 1
 232.400390625 236.614257812 l 1
 168.974609375 500 l 1
 261.974609375 500 l 1
 298.848632812 298 l 1
 466.974609375 500 l 1
 504.974609375 500 l 1
 307.110351562 265.385742188 l 1
 371 0 l 1
EndSplineSet
EndChar

StartChar: z
Encoding: 122 122 25
Width: 408
Flags: HW
LayerCount: 2
Fore
SplineSet
156.734375 417 m 1
 178.974609375 500 l 1
 496.974609375 500 l 1
 474.19921875 415 l 1
 111.190429688 83 l 1
 385.240234375 83 l 1
 363 0 l 1
 45 0 l 1
 69.9189453125 93 l 1
 430.64453125 417 l 1
 156.734375 417 l 1
EndSplineSet
EndChar

StartChar: s
Encoding: 115 115 26
Width: 414
Flags: HW
LayerCount: 2
Fore
SplineSet
240.356445312 382 m 0
 228.541992188 337.907226562 226.334960938 295.904296875 275.9921875 278 c 0
 326.004882812 254 437.15625 254.362304688 404.369140625 132 c 0
 378.646484375 36 281.424804688 -16 202.712890625 -16 c 0
 124.000976562 -16 57.3251953125 46 91.0869140625 172 c 1
 194.446289062 192 l 1
 164.818359375 81.4287109375 166.799804688 20 212.359375 20 c 0
 261.477539062 20 299.25 86.76953125 311.369140625 132 c 0
 323.584960938 177.588867188 318.217773438 219.752929688 286.842773438 231 c 0
 231.809570312 258.495117188 113.69921875 256.388671875 144.676757812 372 c 0
 170.400390625 468 267.622070312 520 346.333984375 520 c 0
 425.045898438 520 494.400390625 468 457.958984375 332 c 1
 354.600585938 312 l 1
 384.227539062 422.571289062 382.247070312 484 336.6875 484 c 0
 287.568359375 484 255.919921875 440.083007812 240.356445312 382 c 0
EndSplineSet
EndChar

StartChar: H
Encoding: 72 72 27
Width: 498
Flags: HW
LayerCount: 2
Fore
SplineSet
148 0 m 1
 55 0 l 1
 242.564453125 700 l 1
 335.564453125 700 l 1
 254.912109375 399 l 1
 456.912109375 399 l 1
 537.564453125 700 l 1
 630.564453125 700 l 1
 443 0 l 1
 350 0 l 1
 447.265625 363 l 1
 245.265625 363 l 1
 148 0 l 1
EndSplineSet
EndChar

StartChar: N
Encoding: 78 78 28
Width: 498
Flags: HW
LayerCount: 2
Fore
SplineSet
148 0 m 1
 55 0 l 1
 242.564453125 700 l 1
 375.564453125 700 l 1
 365.18359375 56.6669921875 l 1
 537.564453125 700 l 1
 630.564453125 700 l 1
 443 0 l 1
 320 0 l 1
 326.6328125 666.666992188 l 1
 148 0 l 1
EndSplineSet
EndChar

StartChar: M
Encoding: 77 77 29
Width: 662
Flags: HW
LayerCount: 2
Fore
SplineSet
338.064453125 26.36328125 m 1
 651.564453125 700 l 1
 794.564453125 700 l 1
 607 0 l 1
 514 0 l 1
 695.3125 676.666992188 l 1
 372 0 l 1
 290 0 l 1
 329.3125 676.666992188 l 1
 148 0 l 1
 55 0 l 1
 242.564453125 700 l 1
 385.564453125 700 l 1
 338.064453125 26.36328125 l 1
EndSplineSet
EndChar

StartChar: U
Encoding: 85 85 30
Width: 484
Flags: HW
LayerCount: 2
Fore
SplineSet
489.91015625 190 m 2
 448.110351562 34 326.384765625 -18 237.176757812 -18 c 0
 147.969726562 -18 54.1103515625 34 95.91015625 190 c 2
 232.564453125 700 l 1
 325.564453125 700 l 1
 325.564453125 700 229.102539062 340 180.872070312 160 c 0
 156.220703125 68 194.114257812 36 251.646484375 36 c 0
 309.177734375 36 369.579101562 88 388.872070312 160 c 0
 533.564453125 700 l 1
 626.564453125 700 l 1
 489.91015625 190 l 2
EndSplineSet
EndChar

StartChar: O
Encoding: 79 79 31
Width: 484
Flags: HW
LayerCount: 2
Fore
SplineSet
434.387695312 718 m 0
 523.594726562 718 617.454101562 666 575.654296875 510 c 2
 489.91015625 190 l 2
 448.110351562 34 326.384765625 -18 237.176757812 -18 c 0
 147.969726562 -18 54.1103515625 34 95.91015625 190 c 2
 181.654296875 510 l 2
 223.454101562 666 345.1796875 718 434.387695312 718 c 0
419.91796875 664 m 0
 362.38671875 664 307.34375 632 282.692382812 540 c 2
 180.872070312 160 l 2
 156.220703125 68 194.114257812 36 251.646484375 36 c 0
 309.177734375 36 369.579101562 88 388.872070312 160 c 2
 490.692382812 540 l 2
 515.34375 632 477.450195312 664 419.91796875 664 c 0
EndSplineSet
EndChar

StartChar: C
Encoding: 67 67 32
Width: 484
Flags: HW
LayerCount: 2
Fore
SplineSet
489.91015625 190 m 1
 448.110351562 34 326.384765625 -18 237.176757812 -18 c 0
 147.969726562 -18 54.1103515625 34 95.91015625 190 c 2
 181.654296875 510 l 2
 223.454101562 666 345.1796875 718 434.387695312 718 c 0
 523.594726562 718 617.454101562 666 575.654296875 510 c 1
 477.294921875 490 l 1
 511.88671875 619.096679688 477.450195312 664 419.91796875 664 c 0
 362.38671875 664 307.34375 632 282.692382812 540 c 2
 180.872070312 160 l 2
 156.220703125 68 194.114257812 36 251.646484375 36 c 0
 309.177734375 36 375.198242188 108.967773438 402.26953125 210 c 1
 489.91015625 190 l 1
EndSplineSet
EndChar

StartChar: G
Encoding: 71 71 33
Width: 484
Flags: HW
LayerCount: 2
Fore
SplineSet
349.24609375 348 m 1
 532.24609375 348 l 1
 489.91015625 190 l 2
 448.110351562 34 326.384765625 -18 237.176757812 -18 c 0
 147.969726562 -18 54.1103515625 34 95.91015625 190 c 2
 181.654296875 510 l 2
 223.454101562 666 345.1796875 718 434.387695312 718 c 0
 523.594726562 718 617.454101562 666 575.654296875 510 c 1
 477.294921875 490 l 1
 511.88671875 619.096679688 477.450195312 664 419.91796875 664 c 0
 362.38671875 664 307.34375 632 282.692382812 540 c 2
 180.872070312 160 l 2
 156.220703125 68 194.114257812 36 251.646484375 36 c 0
 309.177734375 36 369.579101562 88 388.872070312 160 c 2
 430.671875 316 l 1
 330.671875 316 l 1
 349.24609375 348 l 1
EndSplineSet
EndChar

StartChar: Q
Encoding: 81 81 34
Width: 484
Flags: HW
LayerCount: 2
Fore
SplineSet
419.91796875 664 m 0
 362.38671875 664 307.34375 632 282.692382812 540 c 2
 180.872070312 160 l 2
 156.220703125 68 194.114257812 36 251.646484375 36 c 0
 309.177734375 36 369.579101562 88 388.872070312 160 c 2
 490.692382812 540 l 2
 515.34375 632 477.450195312 664 419.91796875 664 c 0
434.387695312 718 m 0
 523.594726562 718 617.454101562 666 575.654296875 510 c 2
 489.91015625 190 l 2
 451.249023438 45.712890625 345.021484375 -9.60546875 259.322265625 -17.0986328125 c 1
 243.103515625 -29.1650390625 230.638671875 -42.40234375 226.995117188 -56 c 0
 219.326171875 -84.62109375 237.2421875 -95.609375 281.298828125 -95.609375 c 0
 336.500976562 -95.609375 373.368164062 -77 373.368164062 -77 c 1
 336.467773438 -155 l 1
 336.467773438 -155 298.8046875 -167.920898438 250.942382812 -167.920898438 c 0
 194.708984375 -167.920898438 130.491210938 -151.182617188 149.83203125 -79 c 0
 156.654296875 -53.541015625 176.934570312 -30.9765625 200.092773438 -12.5263671875 c 1
 119.403320312 2.1787109375 61.712890625 62.375 95.91015625 190 c 2
 181.654296875 510 l 2
 223.454101562 666 345.1796875 718 434.387695312 718 c 0
EndSplineSet
EndChar

StartChar: S
Encoding: 83 83 35
Width: 484
Flags: HW
LayerCount: 2
Fore
SplineSet
187.012695312 530 m 0
 223.454101562 666 345.1796875 718 434.387695312 718 c 0
 523.594726562 718 617.454101562 666 575.654296875 510 c 1
 472.294921875 490 l 1
 506.88671875 619.096679688 474.684570312 664 419.91796875 664 c 0
 359.620117188 664 299.045898438 619.692382812 272.333984375 520 c 0
 248.971679688 432.810546875 284.423828125 386.26171875 341.060546875 371 c 0
 454.4140625 335 520.73046875 305.021484375 484.551757812 170 c 0
 448.110351562 34 326.384765625 -18 237.176757812 -18 c 0
 147.969726562 -18 54.1103515625 34 95.91015625 190 c 1
 199.26953125 210 l 1
 172.198242188 108.967773438 196.879882812 36 251.646484375 36 c 0
 311.944335938 36 372.518554688 80.3076171875 399.23046875 180 c 0
 417.551757812 248.373046875 398.001953125 316.9140625 336.096679688 333 c 0
 224.067382812 367.564453125 152.818359375 402.383789062 187.012695312 530 c 0
EndSplineSet
EndChar

StartChar: A
Encoding: 65 65 36
Width: 498
Flags: HW
LayerCount: 2
Fore
SplineSet
207.606445312 172 m 1
 128 0 l 1
 35 0 l 1
 377.564453125 700 l 1
 510.564453125 700 l 1
 463 0 l 1
 370 0 l 1
 386.766601562 172 l 1
 207.606445312 172 l 1
219.374023438 203 m 1
 389.463867188 203 l 1
 433.526367188 670 l 1
 219.374023438 203 l 1
EndSplineSet
EndChar

StartChar: V
Encoding: 86 86 37
Width: 498
Flags: HW
LayerCount: 2
Fore
SplineSet
289.359375 20 m 1
 612.564453125 700 l 1
 650.564453125 700 l 1
 318 0 l 1
 195 0 l 1
 222.564453125 700 l 1
 315.564453125 700 l 1
 289.359375 20 l 1
EndSplineSet
EndChar

StartChar: W
Encoding: 87 87 38
Width: 820
Flags: HW
LayerCount: 2
Fore
SplineSet
262.038085938 30 m 1
 547.564453125 700 l 1
 651.564453125 700 l 1
 634.038085938 30 l 1
 940.564453125 700 l 1
 972.564453125 700 l 1
 652 0 l 1
 557 0 l 1
 569.938476562 671.538085938 l 1
 288 0 l 1
 185 0 l 1
 222.564453125 700 l 1
 315.564453125 700 l 1
 262.038085938 30 l 1
EndSplineSet
EndChar

StartChar: L
Encoding: 76 76 39
Width: 438
Flags: HW
LayerCount: 2
Fore
SplineSet
170.775390625 85 m 1
 415.775390625 85 l 1
 393 0 l 1
 55 0 l 1
 242.564453125 700 l 1
 335.564453125 700 l 1
 170.775390625 85 l 1
EndSplineSet
EndChar

StartChar: D
Encoding: 68 68 40
Width: 484
Flags: HW
LayerCount: 2
Fore
SplineSet
162.469726562 54 m 1
 256.469726562 54 l 2
 314.000976562 54 374.40234375 106 393.6953125 178 c 2
 485.869140625 522 l 2
 510.520507812 614 472.626953125 646 415.094726562 646 c 2
 321.094726562 646 l 1
 162.469726562 54 l 1
55 0 m 1
 242.564453125 700 l 1
 429.564453125 700 l 2
 518.772460938 700 612.630859375 648 570.831054688 492 c 2
 494.733398438 208 l 2
 452.93359375 52 331.208007812 0 242 0 c 2
 55 0 l 1
EndSplineSet
EndChar

StartChar: I
Encoding: 73 73 41
Width: 198
Flags: HW
LayerCount: 2
Fore
SplineSet
143 0 m 1
 55 0 l 1
 242.564453125 700 l 1
 330.564453125 700 l 1
 143 0 l 1
EndSplineSet
EndChar

StartChar: B
Encoding: 66 66 42
Width: 484
Flags: HW
LayerCount: 2
Fore
SplineSet
169.16796875 79 m 1
 253.16796875 79 l 2
 327.588867188 79 378.228515625 128.946289062 405.86328125 232.078125 c 0
 423.901367188 299.397460938 410.178710938 387 335.696289062 387 c 2
 251.696289062 387 l 1
 169.16796875 79 l 1
258.126953125 411 m 1
 312.126953125 411 l 2
 379.883789062 411 420.79296875 437.08203125 436.869140625 497.078125 c 0
 453.018554688 557.346679688 436.208984375 621 368.396484375 621 c 2
 314.396484375 621 l 1
 258.126953125 411 l 1
434.748046875 407.6484375 m 1
 494.696289062 387 529.083984375 336.19921875 504.379882812 244 c 2
 492.58984375 200 l 2
 450.790039062 44 331.208007812 0 242 0 c 2
 55 0 l 1
 242.564453125 700 l 1
 389.564453125 700 l 2
 516.215820312 700 562.497070312 635.813476562 534.337890625 530.719726562 c 0
 512.44140625 449 474.217773438 430 434.748046875 407.6484375 c 1
EndSplineSet
EndChar

StartChar: P
Encoding: 80 80 43
Width: 484
Flags: HW
LayerCount: 2
Fore
SplineSet
242.564453125 700 m 1
 429.564453125 700 l 2
 518.772460938 700 613.30078125 650.5 573.510742188 502 c 2
 561.720703125 458 l 2
 525.8984375 324.310546875 440.47265625 300 352.384765625 300 c 2
 228.384765625 300 l 1
 148 0 l 1
 55 0 l 1
 242.564453125 700 l 1
237.495117188 334 m 1
 321.495117188 334 l 2
 395.915039062 334 446.081054688 382.173828125 470.974609375 475.078125 c 0
 489.08984375 542.684570312 472.87890625 621 398.396484375 621 c 2
 314.396484375 621 l 1
 237.495117188 334 l 1
EndSplineSet
EndChar

StartChar: R
Encoding: 82 82 44
Width: 484
Flags: HW
LayerCount: 2
Fore
SplineSet
242.854492188 354 m 1
 336.854492188 354 l 2
 404.610351562 354 454.354492188 413.05078125 470.170898438 472.078125 c 0
 491.338867188 551.077148438 475.271484375 617.5 407.458984375 617.5 c 2
 313.458984375 617.5 l 1
 242.854492188 354 l 1
242.564453125 700 m 1
 429.564453125 700 l 2
 518.772460938 700 615.310546875 658 573.510742188 502 c 2
 569.758789062 488 l 2
 541.112304688 381.088867188 461.630859375 334.505859375 395.750976562 334.505859375 c 1
 439 0 l 1
 334 0 l 1
 305.270507812 320 l 1
 233.744140625 320 l 1
 148 0 l 1
 55 0 l 1
 242.564453125 700 l 1
EndSplineSet
EndChar

StartChar: T
Encoding: 84 84 45
Width: 468
Flags: HW
LayerCount: 2
Fore
SplineSet
353.7890625 615 m 1
 209.7890625 615 l 1
 232.564453125 700 l 1
 610.564453125 700 l 1
 587.7890625 615 l 1
 441.7890625 615 l 1
 277 0 l 1
 189 0 l 1
 353.7890625 615 l 1
EndSplineSet
EndChar

StartChar: J
Encoding: 74 74 46
Width: 293
Flags: HW
LayerCount: 2
Fore
SplineSet
185.192382812 150 m 2
 332.564453125 700 l 1
 425.564453125 700 l 1
 291.58984375 200 l 2
 248.907226562 40.7080078125 159.438476562 -20 80.640625 -20 c 0
 52.640625 -20 39.9052734375 -13.9169921875 27.8564453125 -8 c 1
 38.8427734375 33 l 1
 38.8427734375 33 55.046875 26.599609375 76.55078125 26.599609375 c 0
 137.51953125 26.599609375 168.307617188 86.9853515625 185.192382812 150 c 2
EndSplineSet
EndChar

StartChar: E
Encoding: 69 69 47
Width: 438
Flags: HW
LayerCount: 2
Fore
SplineSet
251.428710938 386 m 1
 489.428710938 386 l 1
 477.102539062 340 l 1
 239.102539062 340 l 1
 170.641601562 84.5 l 1
 430.641601562 84.5 l 1
 408 0 l 1
 55 0 l 1
 242.564453125 700 l 1
 595.564453125 700 l 1
 572.7890625 615 l 1
 312.7890625 615 l 1
 251.428710938 386 l 1
EndSplineSet
EndChar

StartChar: F
Encoding: 70 70 48
Width: 438
Flags: HW
LayerCount: 2
Fore
SplineSet
312.7890625 615 m 1
 251.428710938 386 l 1
 489.428710938 386 l 1
 477.102539062 340 l 1
 239.102539062 340 l 1
 148 0 l 1
 55 0 l 1
 242.564453125 700 l 1
 595.564453125 700 l 1
 572.7890625 615 l 1
 312.7890625 615 l 1
EndSplineSet
EndChar

StartChar: Y
Encoding: 89 89 49
Width: 498
Flags: HW
LayerCount: 2
Fore
SplineSet
349.384765625 300 m 1
 602.564453125 700 l 1
 650.564453125 700 l 1
 361.791015625 253 l 1
 294 0 l 1
 209 0 l 1
 276.791015625 253 l 1
 222.564453125 700 l 1
 315.564453125 700 l 1
 349.384765625 300 l 1
EndSplineSet
EndChar

StartChar: K
Encoding: 75 75 50
Width: 482
Flags: HW
LayerCount: 2
Fore
SplineSet
148 0 m 1
 55 0 l 1
 242.564453125 700 l 1
 335.564453125 700 l 1
 233.983398438 320.895507812 l 1
 586.564453125 700 l 1
 634.564453125 700 l 1
 345.977539062 374.509765625 l 1
 437 0 l 1
 331 0 l 1
 258.631835938 308.387695312 l 1
 220.986328125 272.387695312 l 1
 148 0 l 1
EndSplineSet
EndChar

StartChar: X
Encoding: 88 88 51
Width: 514
Flags: HW
LayerCount: 2
Fore
SplineSet
479 0 m 1
 384 0 l 1
 324.375 292.5 l 1
 83 0 l 1
 35 0 l 1
 313.185546875 329.114257812 l 1
 222.564453125 700 l 1
 317.564453125 700 l 1
 383.45703125 408.5 l 1
 627.564453125 700 l 1
 666.564453125 700 l 1
 394.646484375 371.885742188 l 1
 479 0 l 1
EndSplineSet
EndChar

StartChar: Z
Encoding: 90 90 52
Width: 478
Flags: HW
LayerCount: 2
Fore
SplineSet
210.32421875 617 m 1
 232.564453125 700 l 1
 620.564453125 700 l 1
 597.7890625 615 l 1
 111.190429688 83 l 1
 455.240234375 83 l 1
 433 0 l 1
 45 0 l 1
 69.9189453125 93 l 1
 554.234375 617 l 1
 210.32421875 617 l 1
EndSplineSet
EndChar

StartChar: period
Encoding: 46 46 53
Width: 198
Flags: HW
LayerCount: 2
Fore
SplineSet
145.5 0 m 1
 52.5 0 l 1
 78.22265625 96 l 1
 171.22265625 96 l 1
 145.5 0 l 1
EndSplineSet
EndChar

StartChar: comma
Encoding: 44 44 54
Width: 198
Flags: HW
LayerCount: 2
Fore
SplineSet
60.7939453125 -109 m 1
 35.884765625 -90 l 1
 105.224609375 0 l 1
 52.5 0 l 1
 78.22265625 96 l 1
 171.22265625 96 l 1
 145.5 0 l 1
 60.7939453125 -109 l 1
EndSplineSet
EndChar

StartChar: question
Encoding: 63 63 55
Width: 484
Flags: HW
LayerCount: 2
Fore
SplineSet
275.673828125 0 m 1
 182.673828125 0 l 1
 208.397460938 96 l 1
 301.397460938 96 l 1
 275.673828125 0 l 1
348.689453125 297.969726562 m 1
 318.6875 186 l 1
 234.6875 186 l 1
 270.592773438 320 l 1
 345.012695312 320 436.705078125 375.834960938 469.70703125 499 c 0
 500.12890625 612.538085938 477.840820312 663 419.650390625 663 c 0
 361.459960938 663 312.926757812 615.516601562 276.34765625 479 c 1
 188.70703125 499 l 1
 230.506835938 655 342.568359375 707 431.440429688 707 c 0
 520.311523438 707 604.506835938 655 562.70703125 499 c 0
 530.55078125 378.994140625 434.901367188 316 348.689453125 297.969726562 c 1
EndSplineSet
EndChar

StartChar: colon
Encoding: 58 58 56
Width: 198
Flags: HW
LayerCount: 2
Fore
SplineSet
251.206054688 394.5 m 1
 158.206054688 394.5 l 1
 183.928710938 490.5 l 1
 276.928710938 490.5 l 1
 251.206054688 394.5 l 1
173.3671875 104 m 1
 80.3671875 104 l 1
 106.08984375 200 l 1
 199.08984375 200 l 1
 173.3671875 104 l 1
EndSplineSet
EndChar

StartChar: hyphen
Encoding: 45 45 57
Width: 347
Flags: HW
LayerCount: 2
Fore
SplineSet
118.508789062 293 m 1
 385.508789062 293 l 1
 365.94921875 220 l 1
 98.94921875 220 l 1
 118.508789062 293 l 1
EndSplineSet
EndChar
